<?xml version="1.0" encoding="utf-8"?>
<!-- Generator: Adobe Illustrator 16.0.0, SVG Export Plug-In . SVG Version: 6.00 Build 0)  -->
<!DOCTYPE svg PUBLIC "-//W3C//DTD SVG 1.1//EN" "http://www.w3.org/Graphics/SVG/1.1/DTD/svg11.dtd">
<svg version="1.1" id="Layer_3" xmlns="http://www.w3.org/2000/svg" xmlns:xlink="http://www.w3.org/1999/xlink" x="0px" y="0px"
	 width="216px" height="216px" viewBox="0 0 216 216" enable-background="new 0 0 216 216" xml:space="preserve">
<g>
	<path d="M205.67,189.785c-0.022,5.345-4.451,9.658-9.774,9.633H37.06v6.552h158.814c8.949,0.045,16.252-7.116,16.3-16.114
		L205.67,189.785z"/>
	<path d="M158.186,41.948c8.808,0,15.945-7.159,15.945-15.968c0-8.81-7.138-15.948-15.945-15.948
		c-8.812,0-15.972,7.136-15.972,15.946C142.214,34.787,149.372,41.948,158.186,41.948z"/>
	<path d="M57.036,179.323L3.941,126.065l0.022,9.304l49.42,49.609c5.676,6.147,15.404-0.967,15.404-0.967l-4.664-4.993
		c0,0-4.594,3.015-6.974,0.447L57.036,179.323z"/>
	<rect x="4.389" y="78.873" width="54.343" height="6.488"/>
	<polygon points="205.624,63.372 211.82,65.976 150.128,190.16 143.296,190.16 	"/>
	<path d="M103.252,53.797L78.424,82.465c-1.46,1.814-3.699,2.935-6.196,2.935c-4.452,0-8.031-3.593-8.031-8.021
		c0-2.403,1.038-4.545,2.709-6.019l26.76-30.822c1.483-1.766,3.698-2.91,6.195-2.91l38.748-0.011c2.851,0,5.394,1.143,7.28,2.955
		l24.708,24.698l20.47-20.434c1.436-1.211,3.298-1.943,5.323-1.943c4.594,0,8.293,3.724,8.293,8.292
		c0,2.003-0.683,3.816-1.862,5.251l-24.686,24.871c-7.491,7.479-13.52,1.132-13.52,1.132l-15.146-15.22l-23.676,27.375
		l21.696,21.694c0,0,4.567,4.242,1.952,12.698l-12.153,54.18c-0.966,4.709-5.136,8.243-10.105,8.243
		c-5.701,0-10.318-4.619-10.318-10.317c0-0.896,0.095-1.768,0.33-2.591l9.986-44.461l-24.637-23.96L81.347,133.72
		c0,0-3.438,4.24-12.532,3.91l-42.99,0.07c-4.806,0.095-9.164-3.202-10.247-8.066c-1.273-5.561,2.168-11.001,7.726-12.237
		c0.872-0.202,1.743-0.271,2.592-0.247l36.981,0.104l54.673-63.387L103.252,53.797z"/>
</g>
</svg>
