<?xml version="1.0" encoding="utf-8"?>
<!-- Generator: Adobe Illustrator 16.0.0, SVG Export Plug-In . SVG Version: 6.00 Build 0)  -->
<!DOCTYPE svg PUBLIC "-//W3C//DTD SVG 1.1//EN" "http://www.w3.org/Graphics/SVG/1.1/DTD/svg11.dtd">
<svg version="1.1" id="Layer_11" xmlns="http://www.w3.org/2000/svg" xmlns:xlink="http://www.w3.org/1999/xlink" x="0px" y="0px"
	 width="216px" height="216px" viewBox="0 0 216 216" enable-background="new 0 0 216 216" xml:space="preserve">
<g>
	<g>
		<circle cx="151.786" cy="45.14" r="13.577"/>
		<path d="M206.835,184.119c0,0-25.673-22.218-28.635-25.18c-0.74-0.741-7.899-28.143-10.368-38.017c0-0.246,0-0.493,0-0.741
			c8.146-1.974,14.318-3.456,17.529-3.949h0.245c1.233,0.988,2.469,1.481,3.95,1.481c0.739,0,1.231,0,1.973-0.246
			c0.741-0.247,1.481-0.495,1.977-0.989c4.69,1.729,5.184,5.433,5.432,8.147c0,0.987,0.738,1.729,1.728,1.729
			s1.729-0.741,1.729-1.729l0,0c0-2.223-0.494-5.431-2.718-7.9c-0.986-1.234-2.221-2.222-3.701-2.963
			c0.741-1.479,0.986-2.962,0.491-4.688c-1.231-5.184-4.937-20.736-4.937-20.736c-1.232-4.195-1.974-5.431-4.688-8.146
			l-20.241-18.76c-1.234-0.988-2.718-1.729-4.689-1.729c-4.938,0-14.812-0.247-19.75-0.247c-1.975,0-4.197,0.494-5.677,2.222
			c0,0-5.926,6.666-11.108,12.342c-2.715-5.677-5.925-12.342-6.665-13.822c-1.729-3.456-5.431-5.184-9.134-3.456
			c-2.962,1.233-5.431,4.937-3.21,9.38c1.48,3.209,9.381,19.502,10.862,22.711c2.222,4.443,6.665,5.432,9.874,2.962
			c3.209-2.714,8.888-8.887,8.888-8.887s-0.741,32.833-1.481,37.274c0,0.495-0.74,2.469-1.976,5.433
			c-33.325,8.64-73.069,18.762-93.31,20.733c-3.705-4.195-13.332-15.056-16.541-18.267c-0.74-0.741-1.976-0.247-2.223,0.493
			c-0.247,0.988-0.492,3.21-0.492,4.198c0,0.986-0.742,2.469-1.481,2.96c-2.962,3.457-8.394,9.135-12.097,12.592
			c-1.48,1.479,0,3.455,0.494,4.441c0.987,1.48,3.209,4.691,6.664,3.704c1.977-0.496,5.678-1.977,7.653-2.717
			c0.987-0.248,2.222,0,3.21,2.221c2.715,6.666,5.184,13.083,4.443,14.565c-1.976,3.704-7.899,13.824-10.368,18.514
			c-1.235,1.976-0.494,4.69,1.728,6.171c2.221,1.235,4.938,0.495,6.172-1.479c2.221-4.196,9.381-16.54,9.381-16.54
			s6.666,12.591,8.886,16.786c1.235,2.224,3.95,2.965,5.927,1.729c2.221-1.233,3.208-3.951,1.975-5.925
			c-1.975-3.95-8.393-15.798-8.393-15.798l20.488,0.247c0,0-6.665,11.601-8.887,15.551c-1.234,1.974-0.494,4.69,1.729,5.925
			c2.222,1.235,4.936,0.494,6.172-1.482c2.469-4.441,10.367-18.267,10.367-18.267s7.158,13.824,9.628,18.516
			c1.233,2.221,3.948,2.962,6.171,1.729c2.223-1.235,3.209-3.95,1.975-5.926c-2.47-4.689-8.64-16.291-10.121-19.008
			c-0.494-1.233,0-11.85,0.246-15.798c0-0.741,7.159-4.69,9.627-6.912c1.482-1.481,1.976-3.456,1.234-4.441
			c-0.74-1.237-2.221-1.729-4.443-0.988c-2.713,0.988-8.887,5.185-9.873,5.185c-1.234,0-16.047-0.247-26.662-0.247
			c21.479-3.702,52.336-11.604,79.487-18.515c-6.171,15.305-18.515,45.174-23.944,56.776c-1.976,4.442,0,9.38,4.443,11.356
			c0.494,0.245,0.74,0.245,1.234,0.491c4.196,1.234,8.394-0.74,10.366-4.69c6.913-15.552,27.648-62.205,27.648-62.205
			s7.406,21.969,10.367,30.608c1.482,4.196,3.209,7.156,6.912,10.614c6.418,5.678,28.388,24.687,28.388,24.687l0,0
			c3.703,2.963,9.136,2.222,12.097-1.481C211.279,192.511,210.54,187.08,206.835,184.119z M166.846,80.934
			c0,0,11.107,10.121,11.354,11.108c0.494,1.479,3.702,15.554,4.938,20.736c0,0.246,0,0.246,0.246,0.495
			c-3.455,0.49-8.887,1.973-16.045,3.7C166.599,105.865,166.846,80.934,166.846,80.934z"/>
	</g>
</g>
</svg>
