<?xml version="1.0" encoding="utf-8"?>
<!-- Generator: Adobe Illustrator 16.0.0, SVG Export Plug-In . SVG Version: 6.00 Build 0)  -->
<!DOCTYPE svg PUBLIC "-//W3C//DTD SVG 1.1//EN" "http://www.w3.org/Graphics/SVG/1.1/DTD/svg11.dtd">
<svg version="1.1" id="Layer_8" xmlns="http://www.w3.org/2000/svg" xmlns:xlink="http://www.w3.org/1999/xlink" x="0px" y="0px"
	 width="216px" height="216px" viewBox="0 0 216 216" enable-background="new 0 0 216 216" xml:space="preserve">
<g>
	<g>
		<circle cx="177.888" cy="36.561" r="20.762"/>
	</g>
	<g>
		<path d="M87.573,62.513c0,0,18.685-25.953,46.715-25.953c14.532,0,22.836,9.343,22.836,21.8c0,2.076-1.038,38.41-1.038,38.41
			l-8.305-23.876l-25.952,15.572L87.573,62.513z"/>
	</g>
	<g>
		
			<rect x="25.199" y="46.271" transform="matrix(-0.8464 -0.5326 0.5326 -0.8464 118.9763 140.6927)" width="109.162" height="13.832"/>
	</g>
	<g>
		<path d="M192.42,192.277c-14.532,7.265-35.296,3.112-49.829-5.19L12.829,113.38L2.448,131.028l129.764,73.704
			c8.304,5.19,18.685,7.268,28.03,7.268c9.343,0,17.646-2.078,25.953-6.229l16.608-9.343L192.42,192.277z"/>
	</g>
	<g>
		<path d="M185.606,126.49l-31.019-19.647c-9.245-5.356-14.759-15.705-14.759-27.721V59.397h13.831v19.725
			c0,7.053,2.967,12.958,7.936,15.796l0.269,0.162l31.143,19.725L185.606,126.49z"/>
	</g>
	<g>
		<path d="M81.056,170.75l-9.805-17.155l43.39-24.797c1.476-0.974,2.005-2.291,2.005-3.218c0-0.745-0.326-1.268-1.091-1.746
			l-0.508-0.339c-14.142-10.102-33.595-22.402-33.79-22.526L91.81,84.265c0.81,0.512,19.939,12.608,34.507,22.999
			c6.324,4.084,10.088,10.905,10.088,18.318c0,8.089-4.269,15.584-11.417,20.052l-0.333,0.199L81.056,170.75z"/>
	</g>
	<g>
		<path d="M123.906,106.113L76.155,72.894l-4.152,4.154c-10.381,10.379-7.268,26.99,5.191,33.219l44.638,21.799L123.906,106.113z"/>
	</g>
</g>
</svg>
