<?xml version="1.0" encoding="utf-8"?>
<!-- Generator: Adobe Illustrator 16.0.0, SVG Export Plug-In . SVG Version: 6.00 Build 0)  -->
<!DOCTYPE svg PUBLIC "-//W3C//DTD SVG 1.1//EN" "http://www.w3.org/Graphics/SVG/1.1/DTD/svg11.dtd">
<svg version="1.1" id="Layer_2_1_" xmlns="http://www.w3.org/2000/svg" xmlns:xlink="http://www.w3.org/1999/xlink" x="0px" y="0px"
	 width="216px" height="216px" viewBox="0 0 216 216" enable-background="new 0 0 216 216" xml:space="preserve">
<path d="M116.814,157.387L91.168,70.152c-1.298-6.052-7.311-11.009-13.34-11.009h-14.81c-6.191,0-12.304,4.96-13.579,11.019
	l-25.183,87.217c-1.273,6.056,2.754,11.02,8.942,11.02h3.33h11.315l0.833,11.222l1.705,21.514
	c0.491,6.175,5.135,11.229,10.324,11.229h18.86c5.189,0,9.833-5.051,10.324-11.229l1.702-21.514l0.875-11.222h11.28h4.182
	C114.121,168.398,118.127,163.44,116.814,157.387"/>
<path d="M92.999,27.502c0-12.407-10.053-22.463-22.46-22.463S48.076,15.095,48.076,27.502c0,12.404,10.056,22.46,22.463,22.46
	S92.999,39.906,92.999,27.502"/>
<path d="M195.417,141.397l-7.405-34.138c-0.978-4.469-5.509-8.128-10.088-8.128h-6.035h-16.638h-6.039
	c-4.576,0-9.113,3.659-10.084,8.128l-7.406,34.138c-0.969,4.472,1.473,8.132,5.423,8.132h7.143l0.701,8.299l3.668,46.238
	c0.362,4.566,3.798,8.292,7.634,8.292h13.933c3.839,0,7.262-3.726,7.624-8.292l3.675-46.238l0.682-8.299h7.475
	C193.809,149.529,196.39,145.869,195.417,141.397"/>
<path d="M180.161,75.745c0-9.168-7.43-16.599-16.602-16.599c-9.168,0-16.599,7.431-16.599,16.599s7.431,16.599,16.599,16.599
	C172.734,92.344,180.161,84.913,180.161,75.745"/>
</svg>
