<?xml version="1.0" encoding="utf-8"?>
<!-- Generator: Adobe Illustrator 16.0.0, SVG Export Plug-In . SVG Version: 6.00 Build 0)  -->
<!DOCTYPE svg PUBLIC "-//W3C//DTD SVG 1.1//EN" "http://www.w3.org/Graphics/SVG/1.1/DTD/svg11.dtd">
<svg version="1.1" id="Layer_1" xmlns="http://www.w3.org/2000/svg" xmlns:xlink="http://www.w3.org/1999/xlink" x="0px" y="0px"
	 width="216px" height="216px" viewBox="0 0 216 216" enable-background="new 0 0 216 216" xml:space="preserve">
<path d="M122.539,149.025c4.486,0,8.085-3.625,8.085-8.11c0-4.474-3.599-8.11-8.085-8.11c-4.488,0-8.133,3.638-8.133,8.11
	C114.407,145.4,118.053,149.025,122.539,149.025z M202.896,207.495c-48.065,0.712-98.301-8.481-136.754-39.368l0,0
	c-0.248-0.22-0.344-0.519-0.344-0.864c0-0.737,0.592-1.307,1.281-1.307l37.91,0.05c1.823,0,3.352-1.504,3.352-3.352
	c0-1.38-0.643-2.343-2.12-3.082l-34.263-16.356c-0.641-0.393-1.086-1.107-1.086-1.921c0-0.617,0.248-1.171,0.643-1.59l0,0
	c0,0,41.755-36.902,131.381-36.088V207.495L202.896,207.495z"/>
<path d="M186.385,23.512c-29.677,0.332-58.738,12.99-91.324,39.721c-1.221-0.332-3.895-1.045-3.895-1.045
	c-5.176,0-9.391,4.19-9.391,9.354c0,0,0.37,1.749,0.592,2.822C81.369,75.3,56.029,99.074,56.029,99.074l-22.396,21.112
	c-2.106,1.909-4.819,2.883-7.666,2.748c-2.834-0.136-5.437-1.364-7.32-3.447c-1.837-2.036-2.735-4.586-2.735-7.138
	c0-2.885,1.156-5.755,3.438-7.836c0,0,1.689-0.938,2.973-1.664c0.271,1.91,1.059,7.775,1.059,7.775l18.267-23.268l-20.153,6.86
	c-5.311,1.825-7.494,4.498-7.58,4.611c-7.381,6.681-7.961,18.389-1.133,25.941c6.865,7.567,18.586,8.111,26.141,1.26l0.197-0.245
	l21.237-20.215c0,0,26.214-24.797,27.065-25.611c1.269,0.332,3.748,0.962,3.748,0.962c5.152,0,9.342-4.203,9.342-9.38
	c0,0-0.246-1.367-0.432-2.354c31.513-25.932,59.095-38.23,86.701-38.553c5.67-0.061,10.204,0.691,17.649,2.282l1.527,0.332v-7.383
	l-0.986-0.21C197.281,24.016,192.228,23.438,186.385,23.512z"/>
</svg>
