<?xml version="1.0" encoding="utf-8"?>
<!-- Generator: Adobe Illustrator 16.0.0, SVG Export Plug-In . SVG Version: 6.00 Build 0)  -->
<!DOCTYPE svg PUBLIC "-//W3C//DTD SVG 1.1//EN" "http://www.w3.org/Graphics/SVG/1.1/DTD/svg11.dtd">
<svg version="1.1" id="Layer_1" xmlns="http://www.w3.org/2000/svg" xmlns:xlink="http://www.w3.org/1999/xlink" x="0px" y="0px"
	 width="216px" height="216px" viewBox="0 0 216 216" enable-background="new 0 0 216 216" xml:space="preserve">
<g id="Layer_10" display="none">
	<g display="inline">
		<circle cx="421.395" cy="226.5" r="20.5"/>
		<path d="M399.869,251.1l26.649,20.5l-13.324,47.15l17.425,23.575l-8.199,17.425l-32.801-26.65
			c-6.149-5.125-9.225-13.323-7.176-21.523L399.869,251.1z"/>
		
			<line fill="none" stroke="#000000" stroke-width="8" stroke-linejoin="round" stroke-miterlimit="10" x1="477.77" y1="257.25" x2="477.77" y2="411"/>
		<path fill="none" stroke="#000000" stroke-width="17" stroke-miterlimit="10" d="M400.895,318.75l24.601,28.7
			c4.101,5.125,6.149,11.273,6.149,17.425c0,16.4,0,46.125,0,46.125"/>
		<path fill="none" stroke="#000000" stroke-width="11" stroke-miterlimit="10" d="M396.795,260.325l13.324,4.1
			c8.2,2.05,15.375,6.15,21.524,12.3l8.2,8.2c4.101,4.101,9.226,5.125,14.351,4.101c10.25-2.051,25.625-5.125,25.625-5.125"/>
		<polygon points="382.443,411 400.895,359.75 384.494,345.4 360.92,411 		"/>
		<path d="M351.693,315.675L351.693,315.675c-9.225-3.075-15.375-13.325-12.299-22.55l6.15-20.5
			c6.148-18.45,26.648-28.7,45.1-23.575l0,0l-16.399,54.325C371.17,313.625,361.943,318.75,351.693,315.675z"/>
	</g>
</g>
<g id="Layer_4">
	<g>
		<g>
			<g>
				<ellipse cx="187.681" cy="13.865" rx="26.193" ry="8.382"/>
			</g>
		</g>
		<g>
			<polygon points="63,70.441 50.427,137.498 98.623,142.736 109.101,75.682 			"/>
		</g>
		<g>
			<circle cx="88.146" cy="26.438" r="20.955"/>
		</g>
		<g>
			<path d="M75.404,212.518l-16.428-7.548l17.713-38.55c1.604-4.075,2.416-8.165,2.416-12.158v-35.623h18.078v35.623
				c0,6.369-1.273,12.786-3.789,19.073l-0.18,0.416L75.404,212.518z"/>
		</g>
		<g>
			<path d="M13.486,185.456l-7.844-16.289l28.469-13.706l0.183-0.078c5.444-2.334,10.753-7.978,12.908-13.725l0.128-0.322
				l13.62-32.479l16.672,6.99l-13.56,32.332c-3.879,10.186-12.658,19.467-22.453,23.735L13.486,185.456z"/>
		</g>
		<g>
			<path d="M14.909,112.457L2.126,99.674l17.812-17.812c6.01-6.008,12.431-10.022,20.201-12.629l13.793-4.926
				c6.068-3.451,12.467-5,20.594-5H95.48c4.397,0,9.506-0.947,13.351-2.474l12.813-5.34l0.313-0.104
				c3.576-1.191,7.012-4.435,9.251-8.714l11.349-29.921l16.904,6.411l-11.688,30.812l-0.205,0.409
				c-4.332,8.664-11.444,15.22-19.554,18.037L115.6,73.595c-6.021,2.408-13.354,3.79-20.121,3.79H74.523
				c-5.166,0-8.676,0.842-12.111,2.902l-0.768,0.461l-15.693,5.604c-5.19,1.729-9.146,4.209-13.23,8.293L14.909,112.457z"/>
		</g>
	</g>
</g>
</svg>
