<?xml version="1.0" encoding="utf-8"?>
<!-- Generator: Adobe Illustrator 16.0.0, SVG Export Plug-In . SVG Version: 6.00 Build 0)  -->
<!DOCTYPE svg PUBLIC "-//W3C//DTD SVG 1.1//EN" "http://www.w3.org/Graphics/SVG/1.1/DTD/svg11.dtd">
<svg version="1.1" id="Layer_10" xmlns="http://www.w3.org/2000/svg" xmlns:xlink="http://www.w3.org/1999/xlink" x="0px" y="0px"
	 width="216px" height="216px" viewBox="0 0 216 216" enable-background="new 0 0 216 216" xml:space="preserve">
<g>
	<circle cx="112.149" cy="26" r="20.5"/>
	<path d="M90.624,50.6l26.649,20.5l-13.324,47.15l17.425,23.575l-8.199,17.425L80.374,132.6c-6.149-5.125-9.225-13.323-7.176-21.523
		L90.624,50.6z"/>
	
		<line fill="none" stroke="#000000" stroke-width="8" stroke-linejoin="round" stroke-miterlimit="10" x1="168.524" y1="56.75" x2="168.524" y2="210.5"/>
	<path fill="none" stroke="#000000" stroke-width="17" stroke-miterlimit="10" d="M91.649,118.25l24.601,28.7
		c4.101,5.125,6.149,11.273,6.149,17.425c0,16.4,0,46.125,0,46.125"/>
	<path fill="none" stroke="#000000" stroke-width="11" stroke-miterlimit="10" d="M87.55,59.825l13.324,4.1
		c8.2,2.05,15.375,6.15,21.524,12.3l8.2,8.2c4.101,4.101,9.226,5.125,14.351,4.101c10.25-2.051,25.625-5.125,25.625-5.125"/>
	<polygon points="73.198,210.5 91.649,159.25 75.249,144.9 51.675,210.5 	"/>
	<path d="M42.448,115.175L42.448,115.175c-9.225-3.075-15.375-13.325-12.299-22.55l6.15-20.5c6.148-18.45,26.648-28.7,45.1-23.575
		l0,0L65,102.875C61.925,113.125,52.698,118.25,42.448,115.175z"/>
</g>
</svg>
