<?xml version="1.0" encoding="utf-8"?>
<!-- Generator: Adobe Illustrator 16.0.0, SVG Export Plug-In . SVG Version: 6.00 Build 0)  -->
<!DOCTYPE svg PUBLIC "-//W3C//DTD SVG 1.1//EN" "http://www.w3.org/Graphics/SVG/1.1/DTD/svg11.dtd">
<svg version="1.1" id="Layer_1" xmlns="http://www.w3.org/2000/svg" xmlns:xlink="http://www.w3.org/1999/xlink" x="0px" y="0px"
	 width="360px" height="360px" viewBox="0 0 360 360" enable-background="new 0 0 360 360" xml:space="preserve">
<g id="Layer_2_1_" display="none">
	<g display="inline">
		<path d="M335.85,806.65c-53.55,8.5-44.767-20.968-45.332-54.685L287.4,685.95l-13.883,63.75
			c-2.551,12.184-5.668,23.232,11.332,32.017c11.9,10.483-1.416,25.5-14.449,23.518c-39.383,1.417-33.434-24.935-30.316-43.635
			l2.268-26.916c1.699-18.416,5.1-29.75,5.949-55.532l-5.383-13.884C200.7,654.217,171.233,646,138.367,628.15l-23.517,3.115
			c-10.767,1.7-7.934,14.167-9.067,22.385l-3.4,22.383l-19.55,51l-1.417,4.533c-1.417,3.399-0.85,17.566,3.967,24.649l10.2,21.25
			c8.216,12.185,10.483,41.935-11.617,32.3l-16.434-6.8c-11.617-4.815-20.967-37.399-24.933-61.2l0.283-33.433
			c-10.2-3.117-14.167,56.666-10.2,69.133l10.2,31.167c3.117,10.2-8.5,13.601-16.717,13.601c-19.267,0-27.483-19.551-31.733-36.268
			L-8.684,773.5c-4.816-18.983-2.267-47.883,7.367-64.883l4.25-10.483c8.784-20.684-1.983-35.417-4.25-45.899
			c-8.216-33.718-14.733-66.301,8.217-98.601l1.7-2.267c-0.567-2.551-7.367-7.935-11.333-20.685
			c-8.783-28.616-16.717-75.366-5.667-75.366l7.083-0.283c18.417,0,13.034,77.351,35.133,72.25l159.233,1.7l28.051-7.649
			c10.482-2.834,19.267-9.351,28.332-15.301l18.133-11.333c20.968,21.25,39.385,34.283,69.418,45.333
			c8.217,63.184-0.851,77.066-8.783,114.75l-3.117,15.301c-5.667,26.916-7.367,54.966-6.232,82.449l0.565,13.033
			c-0.283,13.316,7.083,14.167,17.567,17.566C344.066,786.816,348.883,800.133,335.85,806.65L335.85,806.65L335.85,806.65z"/>
		<path d="M369.566,421.316c8.783,5.949,19.832,16.717,28.616,26.351l11.051,12.183c7.083,7.65,18.133,6.518,27.767,8.5l3.4,0.567
			c10.767,5.666,7.365,17,3.683,25.783l-2.267,5.383c-10.2,24.367-39.95,26.351-60.918,15.017l-9.35-5.1h-3.117l-6.517,4.533
			L348.314,525.3c-27.199-12.183-49.582-26.633-67.433-45.898l41.083-52.135l13.883-20.399l2.834-6.8l3.116-7.366
			c2.55-8.217,12.75-16.15,20.4-13.033c7.083,3.116,11.899,17,9.917,24.366l-1.983,8.217L369.566,421.316L369.566,421.316
			L369.566,421.316z"/>
	</g>
	
		<circle display="inline" fill="none" stroke="#B20606" stroke-width="10" stroke-miterlimit="10" cx="199.566" cy="593.867" r="285.317"/>
	
		<line display="inline" fill="none" stroke="#B20606" stroke-width="10" stroke-miterlimit="10" x1="413.767" y1="788.517" x2="-17.467" y2="408.566"/>
</g>
<g id="Layer_4">
	<path fill="#6BAF58" d="M60.86,301.58l119.244-119.244L60.86,63.092c0,0-52.86,56.899-52.86,118.365
		C8,242.924,60.86,301.58,60.86,301.58z"/>
	<path fill="#4E90A5" d="M59.982,63.969l119.245,119.246L298.471,63.969c0,0-56.9-52.86-118.366-52.86S59.982,63.969,59.982,63.969z
		"/>
	<path fill="#939597" d="M300.228,62.213L180.982,181.457l119.245,119.244c0,0,52.859-56.898,52.859-118.365
		C353.088,120.87,300.228,62.213,300.228,62.213z"/>
	<g opacity="0.25">
		<g>
			<circle fill="#FFFFFF" cx="180.104" cy="182.336" r="103.429"/>
		</g>
		<defs>
			<filter id="Adobe_OpacityMaskFilter" filterUnits="userSpaceOnUse" x="76.676" y="78.907" width="206.857" height="206.859">
				<feColorMatrix  type="matrix" values="1 0 0 0 0  0 1 0 0 0  0 0 1 0 0  0 0 0 1 0"/>
			</filter>
		</defs>
		<mask maskUnits="userSpaceOnUse" x="76.676" y="78.907" width="206.857" height="206.859" id="SVGID_1_">
			<g filter="url(#Adobe_OpacityMaskFilter)">
				
					<image overflow="visible" enable-background="new    " width="211" height="212" xlink:href="C149A5D95D8E99CC.jpg"  transform="matrix(1 0 0 1 74.5781 76.4824)">
				</image>
			</g>
		</mask>
		<g opacity="0.74" mask="url(#SVGID_1_)">
			<circle cx="180.104" cy="182.336" r="103.429"/>
		</g>
	</g>
	<circle cx="180.104" cy="182.337" r="66.735"/>
	<g>
		
			<image overflow="visible" opacity="0.75" enable-background="new    " width="32" height="54" xlink:href="4DE5DBF977CC6854.png"  transform="matrix(-3.754569e-07 -1.7179 1.7179 -3.754569e-07 64.7441 214.334)">
		</image>
		<g>
			<polygon fill="#BB3A3A" points="149.06,183.609 98.832,183.609 98.832,166.927 69.68,188.352 98.832,209.777 98.832,193.094 
				149.06,193.093 			"/>
		</g>
	</g>
	<g>
		<g enable-background="new    ">
			<path fill="#BB3A3A" d="M215.432,181.936c0,10.543-3.146,19.059-9.439,25.551c-6.294,6.49-14.64,9.736-25.037,9.736
				c-9.502,0-17.438-2.896-23.805-8.688c-7.215-6.566-10.821-15.135-10.821-25.701c0-10.387,3.656-18.923,10.97-25.61
				c6.418-5.851,14.553-8.777,24.402-8.777c11.89,0,21.642,5.226,29.253,15.671l-8.358,5.016
				c-5.622-7.223-12.835-10.834-21.642-10.834c-6.865,0-12.61,2.029-17.237,6.088c-5.373,4.716-8.061,10.867-8.061,18.447
				c0,7.285,2.312,13.195,6.939,17.73c4.627,4.539,10.746,6.807,18.357,6.807c11.94,0,19.702-5.58,23.283-16.746h-25.148v-9.67
				h36.343L215.432,181.936L215.432,181.936z"/>
		</g>
	</g>
</g>
<g id="Layer_3">
	<path fill="none" stroke="#000000" stroke-width="9" stroke-miterlimit="10" d="M348.697,182.336
		c0,23.357-4.741,45.484-13.171,65.682c-8.606,20.195-20.899,38.285-36.177,53.562c-15.279,15.279-33.368,27.572-53.564,36.18
		c-20.196,8.604-42.323,13.17-65.681,13.17c-23.358,0-45.485-4.74-65.681-13.17c-20.195-8.605-38.285-20.898-53.563-36.18
		c-15.279-15.277-27.572-33.367-36.179-53.562c-8.604-20.195-13.17-42.322-13.17-65.682c0-23.357,4.741-45.484,13.17-65.68
		C33.287,96.459,45.58,78.372,60.86,63.092c15.278-15.278,33.368-27.571,53.563-36.177c20.195-8.605,42.323-13.171,65.681-13.171
		c23.356,0,45.483,4.741,65.681,13.171c20.196,8.605,38.285,20.898,53.564,36.177c15.276,15.279,27.569,33.367,36.177,53.563
		C343.956,136.852,348.697,158.979,348.697,182.336z"/>
	<g>
		<path d="M53.973,218.039l3.152,8.848l10.456-3.729l-3.563-9.996l6.55-2.334l6.245,17.521L38.094,242.15l-6-16.832l6.549-2.334
			l3.316,9.307l8.905-3.174l-3.153-8.846L53.973,218.039z"/>
		<path d="M59.016,200.996l9.545,0.689l0.931,7.688l-41.88-3.904l-1.149-9.508l39.851-12.865l0.931,7.689l-9.112,2.885
			L59.016,200.996z M52.043,195.143l-8.376,2.365c-2.432,0.723-6.422,1.758-9.103,2.449l0.021,0.184
			c2.776,0.094,7.089,0.188,9.501,0.326l8.66,0.486L52.043,195.143z"/>
		<path d="M58.547,179.374c1.078-1.545,2.029-4.268,2.266-6.572c0.386-3.762-1.369-5.781-4.039-6.055
			c-2.973-0.304-4.615,1.367-7.215,4.596c-3.969,5.234-8.494,6.918-12.193,6.539c-6.553-0.67-11.566-5.598-10.691-14.151
			c0.272-2.669,1.262-5.144,2.113-6.282l6.725,1.975c-0.846,1.08-1.691,2.771-1.928,5.076c-0.348,3.397,1.547,5.246,3.73,5.469
			c2.428,0.25,3.826-0.834,6.949-4.99c3.828-5.064,8.158-6.645,12.465-6.205c7.464,0.764,11.812,6.787,10.996,14.796
			c-0.336,3.276-1.515,6.405-2.439,7.659L58.547,179.374z"/>
		<path d="M71.508,151.801L56.52,147.01l-26.918,0.875l2.6-8.133l10.208,0.315c2.721,0.101,5.867,0.274,8.958,0.621l0.037-0.115
			c-2.699-1.375-5.34-2.924-7.907-4.511l-8.437-5.258l2.524-7.901l21.076,16.403l15.28,4.883L71.508,151.801z"/>
		<path d="M119.104,70.279c-2.269-3.182-5.397-7.478-7.672-11.233l-0.153,0.098c1.762,4.088,3.579,8.938,4.632,12.033l4.984,14.272
			l-4.769,3.071l-10.698-10.303c-2.449-2.338-6.146-6.051-9.07-9.463l-0.154,0.1c2.309,3.809,4.91,8.299,6.918,11.865l7.164,12.361
			l-5.794,3.731L84.743,60.638l7.075-4.558l10.828,10.726c3.781,3.731,7.129,7.015,10.254,10.516l0.103-0.065
			c-1.964-4.176-3.705-8.567-5.589-13.521l-5.341-14.259l7.075-4.558l24.363,33.202l-5.998,3.863L119.104,70.279z"/>
		<path d="M147.799,55.129l-8.927,2.927l3.458,10.549l10.084-3.306l2.166,6.606l-17.676,5.795l-12.807-39.063l16.98-5.568
			l2.167,6.607l-9.39,3.079l2.945,8.983l8.926-2.926L147.799,55.129z"/>
		<path d="M153.639,30.456c1.957-0.683,4.838-1.274,7.996-1.585c5.16-0.51,8.86,0.349,11.711,2.52
			c3.832,2.809,6.188,8.031,6.974,15.983c0.813,8.255-0.729,14.353-3.997,17.863c-2.469,2.939-6.409,4.617-12.115,5.18
			c-2.488,0.246-5.002,0.25-6.597,0.224L153.639,30.456z M164.949,63.663c0.376,0.086,0.982,0.025,1.406-0.017
			c3.826-0.378,6.793-4.472,5.677-15.761c-0.828-8.376-3.517-13.26-8.312-12.785c-0.547,0.054-1.093,0.107-1.561,0.337
			L164.949,63.663z"/>
		<path d="M196.983,28.848l-3.396,40.97l-7.964-0.661l3.398-40.97L196.983,28.848z"/>
		<path d="M217.139,32.763l-7.062,25.762c-1.597,5.824-0.316,8.072,1.684,8.62c2.234,0.613,4.259-0.54,5.903-6.54l7.062-25.762
			l7.704,2.112l-6.69,24.41c-2.79,10.177-8.129,14.657-15.775,12.56c-8.293-2.273-9.965-8.864-7.238-18.806l6.708-24.469
			L217.139,32.763z"/>
		<path d="M254.461,78.475c1.876-3.428,4.378-8.118,6.769-11.805l-0.156-0.095c-2.911,3.369-6.483,7.119-8.812,9.414l-10.672,10.708
			l-4.844-2.953l4.609-14.119c1.038-3.226,2.767-8.17,4.562-12.289l-0.156-0.096c-2.421,3.738-5.329,8.036-7.663,11.399
			l-8.003,11.835l-5.884-3.588l23.951-33.542l7.185,4.381l-4.934,14.42c-1.71,5.029-3.206,9.477-4.994,13.814l0.104,0.062
			c2.9-3.588,6.096-7.068,9.731-10.924l10.508-11.022l7.187,4.381l-19.265,36.4l-6.095-3.716L254.461,78.475z"/>
		<path d="M321.989,121.831l-15.318,6.041l3.065,7.773l15.318-6.042l2.932,7.433l-38.24,15.082l-2.932-7.432l16-6.311l-3.066-7.773
			l-16,6.311l-2.931-7.433l38.24-15.083L321.989,121.831z"/>
		<path d="M301.486,163.262l-9.547-0.658l-0.953-7.688l41.893,3.775l1.18,9.503l-39.812,12.991l-0.954-7.687l9.104-2.912
			L301.486,163.262z M308.479,169.094l8.368-2.391c2.43-0.732,6.418-1.779,9.096-2.48l-0.021-0.182
			c-2.776-0.086-7.09-0.166-9.502-0.297l-8.663-0.461L308.479,169.094z"/>
		<path d="M334.23,189.572c0.191,2.541,0.125,5.729-0.232,8.756c-0.514,4.361-1.575,8.168-4.312,10.549
			c-2.534,2.219-5.347,2.625-8.859,2.213c-4.361-0.516-8.049-3.1-9.495-7.506l-0.122-0.016c-1.418,2.658-4.188,3.744-8.641,4.02
			c-4.638,0.254-9.793,0.752-11.393,1.301l0.978-8.299c1.208-0.352,5.434-0.773,9.988-0.854c5.174-0.127,6.775-1.229,7.092-3.893
			l0.135-1.152l-16.296-1.918l0.935-7.936L334.23,189.572z M315.486,195.412l-0.164,1.395c-0.406,3.453,2.145,5.779,5.719,6.201
			c3.453,0.404,6.102-0.695,6.645-4.256c0.077-0.664,0.109-1.461-0.022-1.906L315.486,195.412z"/>
		<path d="M327.607,226.602c-0.265,2.055-1.025,4.896-2.159,7.859c-1.854,4.842-4.277,7.768-7.494,9.346
			c-4.226,2.17-9.95,1.938-17.413-0.918c-7.746-2.965-12.509-7.074-14.185-11.566c-1.526-3.521-1.263-7.799,0.786-13.152
			c0.896-2.336,2.017-4.584,2.755-6L327.607,226.602z M292.852,221.855c-0.244,0.299-0.463,0.867-0.614,1.268
			c-1.374,3.588,0.959,8.072,11.554,12.127c7.861,3.01,13.432,2.789,15.153-1.711c0.194-0.514,0.393-1.023,0.396-1.547
			L292.852,221.855z"/>
	</g>
</g>
</svg>
