<?xml version="1.0" encoding="utf-8"?>
<!-- Generator: Adobe Illustrator 16.0.0, SVG Export Plug-In . SVG Version: 6.00 Build 0)  -->
<!DOCTYPE svg PUBLIC "-//W3C//DTD SVG 1.1//EN" "http://www.w3.org/Graphics/SVG/1.1/DTD/svg11.dtd">
<svg version="1.1" id="Layer_1" xmlns="http://www.w3.org/2000/svg" xmlns:xlink="http://www.w3.org/1999/xlink" x="0px" y="0px"
	 width="360px" height="360px" viewBox="216 126 360 360" enable-background="new 216 126 360 360" xml:space="preserve">
<g id="Layer_2_1_" display="none">
	<g display="inline">
		<path d="M335.85,806.65c-53.55,8.5-44.767-20.967-45.333-54.684L287.4,685.95l-13.883,63.75
			c-2.55,12.184-5.667,23.233,11.333,32.017c11.9,10.483-1.417,25.5-14.45,23.517c-39.383,1.417-33.433-24.934-30.316-43.634
			l2.267-26.916c1.7-18.417,5.1-29.75,5.95-55.533l-5.383-13.884C200.7,654.217,171.233,646,138.367,628.15l-23.517,3.116
			c-10.767,1.7-7.934,14.167-9.067,22.384l-3.4,22.383l-19.55,51l-1.417,4.533c-1.417,3.4-0.85,17.567,3.967,24.65l10.2,21.25
			c8.216,12.184,10.483,41.934-11.617,32.3l-16.434-6.8c-11.617-4.816-20.967-37.4-24.933-61.2l0.283-33.433
			c-10.2-3.117-14.167,56.666-10.2,69.133l10.2,31.167c3.117,10.2-8.5,13.6-16.717,13.6c-19.267,0-27.483-19.55-31.733-36.267
			L-8.684,773.5c-4.816-18.983-2.267-47.883,7.367-64.883l4.25-10.483c8.784-20.684-1.983-35.417-4.25-45.9
			c-8.216-33.717-14.733-66.3,8.217-98.6l1.7-2.267c-0.567-2.551-7.367-7.934-11.333-20.684
			c-8.783-28.617-16.717-75.367-5.667-75.367l7.083-0.283c18.417,0,13.034,77.351,35.133,72.25l159.233,1.7l28.05-7.649
			c10.483-2.834,19.267-9.351,28.333-15.301l18.133-11.333c20.967,21.25,39.384,34.283,69.417,45.333
			c8.217,63.184-0.85,77.067-8.783,114.75l-3.117,15.301c-5.667,26.916-7.367,54.966-6.233,82.449l0.566,13.033
			c-0.283,13.317,7.083,14.167,17.567,17.567C344.066,786.816,348.883,800.133,335.85,806.65L335.85,806.65L335.85,806.65z"/>
		<path d="M369.566,421.316c8.784,5.95,19.833,16.717,28.617,26.351l11.05,12.183c7.083,7.65,18.133,6.517,27.767,8.5l3.4,0.567
			c10.767,5.666,7.366,17,3.683,25.783l-2.267,5.383c-10.2,24.367-39.95,26.351-60.917,15.017l-9.35-5.1h-3.117l-6.517,4.533
			l-13.6,10.767c-27.2-12.183-49.583-26.633-67.433-45.899l41.083-52.134l13.883-20.4l2.833-6.8l3.117-7.366
			c2.55-8.217,12.75-16.15,20.4-13.033c7.083,3.116,11.9,17,9.917,24.366l-1.983,8.217L369.566,421.316L369.566,421.316
			L369.566,421.316z"/>
	</g>
	
		<circle display="inline" fill="none" stroke="#B20606" stroke-width="10" stroke-miterlimit="10" cx="199.566" cy="593.867" r="285.317"/>
	
		<line display="inline" fill="none" stroke="#B20606" stroke-width="10" stroke-miterlimit="10" x1="413.767" y1="788.517" x2="-17.467" y2="408.566"/>
</g>
<g id="Layer_4">
	<path fill="#6BAF58" d="M279.782,427.598l119.244-119.244L279.782,189.109c0,0-52.86,56.9-52.86,118.365
		C226.922,368.941,279.782,427.598,279.782,427.598z"/>
	<path fill="#4E90A5" d="M278.904,189.986l119.245,119.245l119.244-119.245c0,0-56.901-52.86-118.367-52.86
		C337.56,137.126,278.904,189.986,278.904,189.986z"/>
	<path fill="#939597" d="M519.149,188.231L399.904,307.475l119.245,119.244c0,0,52.86-56.899,52.86-118.365
		C572.01,246.887,519.149,188.231,519.149,188.231z"/>
	<g opacity="0.25">
		<g>
			<circle fill="#FFFFFF" cx="399.026" cy="308.353" r="103.429"/>
		</g>
		<defs>
			<filter id="Adobe_OpacityMaskFilter" filterUnits="userSpaceOnUse" x="295.598" y="204.924" width="206.857" height="206.858">
				
					<feColorMatrix  type="matrix" values="-1 0 0 0 1  0 -1 0 0 1  0 0 -1 0 1  0 0 0 1 0" color-interpolation-filters="sRGB" result="source"/>
			</filter>
		</defs>
		<mask maskUnits="userSpaceOnUse" x="295.598" y="204.924" width="206.857" height="206.858" id="SVGID_1_">
			<g filter="url(#Adobe_OpacityMaskFilter)">
				
					<image overflow="visible" width="211" height="212" xlink:href="C149A5D95D8E99CC.jpg"  transform="matrix(1 0 0 1 293.5 202.5)">
				</image>
			</g>
		</mask>
		<g opacity="0.74" mask="url(#SVGID_1_)">
			<circle cx="399.026" cy="308.353" r="103.429"/>
		</g>
	</g>
	<circle cx="399.026" cy="308.354" r="66.735"/>
	<g>
		
			<image overflow="visible" opacity="0.75" enable-background="new    " width="32" height="54" xlink:href="4DE5DBF977CC6854.png"  transform="matrix(1.7179 0 0 1.7179 373.9209 196.9941)">
		</image>
		<g>
			<polygon fill="#BB3A3A" points="404.646,281.309 404.646,231.082 421.329,231.082 399.904,201.929 378.479,231.082 
				395.163,231.082 395.163,281.309 			"/>
		</g>
	</g>
	<g>
		<g enable-background="new    ">
			<path fill="#BB3A3A" d="M434.354,307.953c0,10.542-3.147,19.058-9.44,25.55c-6.294,6.491-14.64,9.737-25.037,9.737
				c-9.502,0-17.438-2.896-23.805-8.688c-7.215-6.566-10.821-15.134-10.821-25.701c0-10.387,3.656-18.923,10.969-25.61
				c6.418-5.851,14.553-8.777,24.403-8.777c11.89,0,21.642,5.225,29.253,15.671l-8.358,5.016
				c-5.622-7.223-12.835-10.835-21.642-10.835c-6.865,0-12.611,2.029-17.238,6.089c-5.373,4.715-8.06,10.866-8.06,18.446
				c0,7.285,2.313,13.195,6.94,17.731c4.627,4.538,10.746,6.807,18.357,6.807c11.94,0,19.702-5.581,23.283-16.747h-25.148v-9.67
				h36.343V307.953z"/>
		</g>
	</g>
</g>
<g id="Layer_3">
	<path fill="none" stroke="#000000" stroke-width="9" stroke-miterlimit="10" d="M567.619,308.354
		c0,23.357-4.741,45.484-13.171,65.681c-8.606,20.195-20.899,38.285-36.177,53.563c-15.279,15.279-33.368,27.572-53.564,36.178
		c-20.196,8.604-42.323,13.171-65.681,13.171s-45.485-4.741-65.681-13.171c-20.195-8.605-38.285-20.898-53.563-36.178
		c-15.279-15.278-27.572-33.368-36.178-53.563c-8.604-20.196-13.171-42.323-13.171-65.681s4.742-45.485,13.171-65.681
		c8.605-20.196,20.898-38.285,36.178-53.563c15.278-15.279,33.368-27.572,53.563-36.178c20.196-8.605,42.324-13.171,65.681-13.171
		s45.484,4.741,65.681,13.171c20.196,8.605,38.285,20.898,53.564,36.178c15.277,15.278,27.57,33.367,36.177,53.563
		C562.878,262.869,567.619,284.996,567.619,308.354z"/>
	<g>
		<path d="M272.894,344.056l3.153,8.848l10.456-3.728l-3.563-9.996l6.549-2.334l6.246,17.521l-38.72,13.801l-6-16.832l6.549-2.334
			l3.317,9.306l8.905-3.173l-3.153-8.847L272.894,344.056z"/>
		<path d="M277.938,327.013l9.545,0.689l0.93,7.689l-41.88-3.906l-1.149-9.506l39.851-12.866l0.93,7.689l-9.112,2.885
			L277.938,327.013z M270.965,321.159l-8.376,2.365c-2.432,0.724-6.422,1.759-9.103,2.451l0.021,0.182
			c2.776,0.095,7.088,0.188,9.501,0.326l8.66,0.488L270.965,321.159z"/>
		<path d="M277.469,305.391c1.078-1.545,2.029-4.268,2.266-6.573c0.385-3.762-1.37-5.781-4.04-6.054
			c-2.973-0.304-4.615,1.367-7.214,4.595c-3.969,5.235-8.494,6.918-12.194,6.539c-6.553-0.67-11.566-5.597-10.692-14.151
			c0.273-2.669,1.262-5.144,2.114-6.282l6.725,1.975c-0.846,1.079-1.692,2.77-1.928,5.076c-0.348,3.397,1.547,5.246,3.731,5.469
			c2.427,0.249,3.825-0.835,6.948-4.991c3.829-5.064,8.159-6.645,12.466-6.205c7.463,0.764,11.812,6.787,10.995,14.796
			c-0.336,3.276-1.514,6.405-2.439,7.659L277.469,305.391z"/>
		<path d="M290.43,277.818l-14.989-4.791l-26.917,0.875l2.599-8.133l10.208,0.316c2.721,0.101,5.867,0.274,8.958,0.621l0.037-0.115
			c-2.699-1.375-5.34-2.924-7.907-4.511l-8.436-5.258l2.524-7.901l21.076,16.403l15.28,4.883L290.43,277.818z"/>
		<path d="M338.025,196.296c-2.268-3.182-5.397-7.477-7.672-11.234l-0.153,0.098c1.762,4.088,3.58,8.938,4.632,12.034l4.985,14.272
			l-4.769,3.071l-10.698-10.302c-2.45-2.339-6.147-6.051-9.071-9.464l-0.154,0.1c2.309,3.809,4.91,8.299,6.918,11.866l7.164,12.36
			l-5.794,3.732l-19.748-36.174l7.076-4.558l10.827,10.726c3.781,3.731,7.13,7.015,10.255,10.516l0.102-0.066
			c-1.964-4.175-3.705-8.567-5.589-13.521l-5.341-14.259l7.076-4.558l24.362,33.201L346.435,208L338.025,196.296z"/>
		<path d="M366.72,181.147l-8.926,2.926l3.458,10.549l10.084-3.306l2.166,6.607l-17.676,5.795l-12.807-39.063l16.981-5.568
			l2.167,6.607l-9.389,3.079l2.945,8.983l8.925-2.926L366.72,181.147z"/>
		<path d="M372.561,156.473c1.956-0.683,4.838-1.274,7.996-1.585c5.16-0.51,8.86,0.349,11.71,2.52
			c3.833,2.809,6.188,8.031,6.974,15.983c0.814,8.255-0.729,14.353-3.997,17.863c-2.469,2.94-6.409,4.617-12.115,5.18
			c-2.489,0.246-5.002,0.25-6.597,0.223L372.561,156.473z M383.871,189.68c0.376,0.085,0.983,0.025,1.407-0.017
			c3.825-0.378,6.792-4.471,5.676-15.761c-0.828-8.376-3.516-13.26-8.312-12.785c-0.546,0.054-1.092,0.107-1.56,0.337
			L383.871,189.68z"/>
		<path d="M415.905,154.865l-3.396,40.97l-7.964-0.661l3.398-40.97L415.905,154.865z"/>
		<path d="M436.061,158.78l-7.062,25.762c-1.597,5.824-0.316,8.072,1.684,8.62c2.234,0.613,4.258-0.54,5.903-6.54l7.062-25.762
			l7.705,2.112l-6.691,24.41c-2.79,10.176-8.129,14.657-15.775,12.56c-8.293-2.274-9.965-8.865-7.239-18.806l6.708-24.469
			L436.061,158.78z"/>
		<path d="M473.383,204.492c1.876-3.428,4.378-8.118,6.768-11.804l-0.156-0.095c-2.911,3.369-6.483,7.119-8.812,9.414
			l-10.672,10.708l-4.844-2.953l4.609-14.12c1.038-3.225,2.767-8.17,4.563-12.289l-0.156-0.095
			c-2.421,3.738-5.329,8.036-7.663,11.399l-8.003,11.835l-5.884-3.587l23.951-33.542l7.185,4.381l-4.934,14.42
			c-1.71,5.03-3.206,9.476-4.994,13.814l0.104,0.063c2.901-3.588,6.096-7.068,9.732-10.924l10.508-11.022l7.186,4.381
			l-19.265,36.401l-6.094-3.716L473.383,204.492z"/>
		<path d="M540.911,247.847l-15.318,6.042l3.065,7.773l15.319-6.042l2.931,7.432l-38.24,15.083l-2.932-7.432l16-6.311l-3.066-7.773
			l-16,6.311l-2.931-7.433l38.24-15.083L540.911,247.847z"/>
		<path d="M520.408,289.28l-9.547-0.659l-0.953-7.688l41.893,3.776l1.179,9.503l-39.812,12.991l-0.954-7.688l9.104-2.911
			L520.408,289.28z M527.401,295.111l8.369-2.39c2.429-0.732,6.417-1.78,9.095-2.481l-0.021-0.182
			c-2.777-0.085-7.09-0.165-9.502-0.296l-8.663-0.461L527.401,295.111z"/>
		<path d="M553.152,315.59c0.192,2.541,0.125,5.727-0.232,8.756c-0.514,4.361-1.575,8.167-4.312,10.548
			c-2.534,2.219-5.346,2.626-8.859,2.212c-4.361-0.514-8.049-3.098-9.495-7.505l-0.122-0.016c-1.418,2.658-4.188,3.745-8.641,4.02
			c-4.637,0.254-9.793,0.752-11.392,1.3l0.977-8.299c1.208-0.35,5.434-0.772,9.988-0.852c5.174-0.128,6.776-1.229,7.092-3.894
			l0.135-1.151l-16.296-1.919l0.935-7.935L553.152,315.59z M534.408,321.43l-0.164,1.394c-0.406,3.452,2.145,5.779,5.719,6.2
			c3.453,0.406,6.101-0.695,6.644-4.254c0.078-0.666,0.11-1.462-0.022-1.907L534.408,321.43z"/>
		<path d="M546.529,352.619c-0.264,2.054-1.025,4.897-2.159,7.859c-1.853,4.842-4.277,7.767-7.494,9.345
			c-4.226,2.17-9.95,1.938-17.413-0.917c-7.746-2.966-12.509-7.074-14.185-11.567c-1.526-3.522-1.262-7.798,0.787-13.152
			c0.895-2.335,2.016-4.583,2.754-6L546.529,352.619z M511.773,347.873c-0.244,0.298-0.462,0.867-0.614,1.267
			c-1.374,3.589,0.959,8.073,11.554,12.128c7.861,3.009,13.432,2.789,15.153-1.712c0.195-0.513,0.393-1.024,0.396-1.546
			L511.773,347.873z"/>
	</g>
</g>
</svg>
