<?xml version="1.0" encoding="utf-8"?>
<!-- Generator: Adobe Illustrator 16.0.0, SVG Export Plug-In . SVG Version: 6.00 Build 0)  -->
<!DOCTYPE svg PUBLIC "-//W3C//DTD SVG 1.1//EN" "http://www.w3.org/Graphics/SVG/1.1/DTD/svg11.dtd">
<svg version="1.1" id="Layer_1" xmlns="http://www.w3.org/2000/svg" xmlns:xlink="http://www.w3.org/1999/xlink" x="0px" y="0px"
	 width="224.666px" height="120.667px" viewBox="57.168 119.833 224.666 120.667"
	 enable-background="new 57.168 119.833 224.666 120.667" xml:space="preserve">
<g display="none">
	<path display="inline" d="M266.8,187.471c0,5.965-4.835,10.8-10.8,10.8H77.3c-5.964,0-10.8-4.835-10.8-10.8v-9.4
		c0-5.964,4.835-10.8,10.8-10.8H256c5.965,0,10.8,4.835,10.8,10.8V187.471z"/>
	<g display="inline">
		<g>
			<polygon fill="#E4A72B" points="100.209,199.669 100.209,167.241 111.601,167.241 96.119,149.092 80.635,167.241 92.028,167.241 
				92.028,199.669 			"/>
		</g>
	</g>
	<text transform="matrix(0.8 0 0 1 72.0801 146.334)" display="inline" font-family="'Candara-Bold'" font-size="28">EASY</text>
	<path display="inline" fill="#E4A72B" d="M97.551,214.768v-4.662l-10.539,6.889l10.539,6.891v-3.999h9.701
		c-1.717,5.909-5.435,8.862-11.155,8.862c-3.648,0-6.579-1.2-8.796-3.602c-2.217-2.4-3.325-5.529-3.325-9.385
		c0-4.012,1.287-7.267,3.862-9.763c2.217-2.149,4.97-3.224,8.26-3.224c4.219,0,7.675,1.912,10.369,5.734l4.004-2.653
		c-3.646-5.529-8.319-8.294-14.016-8.294c-4.72,0-8.617,1.548-11.692,4.645c-3.504,3.539-5.256,8.057-5.256,13.555
		c0,5.594,1.729,10.127,5.184,13.604c3.051,3.064,6.854,4.597,11.407,4.597c4.981,0,8.98-1.718,11.996-5.153
		s4.523-7.942,4.523-13.522v-0.519H97.551z"/>
	<text transform="matrix(0.8 0 0 1 142.0801 146.334)" display="inline" font-family="'Candara-Bold'" font-size="28">MED</text>
	<text transform="matrix(0.8 0 0 1 205.0801 146.334)" display="inline" font-family="'Candara-Bold'" font-size="28">HARD</text>
</g>
<g display="none">
	<path display="inline" d="M270.3,188.744c0,5.964-4.835,10.799-10.8,10.799H80.8c-5.964,0-10.8-4.835-10.8-10.799v-9.401
		c0-5.964,4.835-10.8,10.8-10.8h178.7c5.965,0,10.8,4.835,10.8,10.8V188.744z"/>
	<g display="inline">
		<g>
			<polygon fill="#E4A72B" points="170.284,200.941 170.284,168.514 181.676,168.514 166.193,150.365 150.709,168.514 
				162.102,168.514 162.103,200.941 			"/>
		</g>
	</g>
	<path display="inline" fill="#E4A72B" d="M167.625,216.04v-4.661l-10.539,6.889l10.539,6.89v-3.999h9.701
		c-1.717,5.909-5.435,8.863-11.155,8.863c-3.648,0-6.579-1.201-8.796-3.602c-2.217-2.4-3.325-5.529-3.325-9.385
		c0-4.013,1.287-7.268,3.862-9.764c2.217-2.148,4.97-3.223,8.26-3.223c4.219,0,7.675,1.912,10.369,5.734l4.004-2.654
		c-3.646-5.529-8.319-8.293-14.016-8.293c-4.72,0-8.617,1.547-11.692,4.644c-3.504,3.54-5.256,8.058-5.256,13.556
		c0,5.593,1.729,10.127,5.184,13.603c3.051,3.065,6.854,4.597,11.407,4.597c4.981,0,8.98-1.717,11.996-5.152
		c3.015-3.436,4.523-7.943,4.523-13.523v-0.519H167.625z"/>
	<text transform="matrix(0.8 0 0 1 72.0801 146.3345)" display="inline" font-family="'Candara-Bold'" font-size="28">EASY</text>
	<text transform="matrix(0.8 0 0 1 142.0801 146.3345)" display="inline" font-family="'Candara-Bold'" font-size="28">MED</text>
	<text transform="matrix(0.8 0 0 1 205.0801 146.3345)" display="inline" font-family="'Candara-Bold'" font-size="28">HARD</text>
</g>
<g>
	<path d="M270.3,188.973c0,5.965-4.835,10.799-10.8,10.799H80.8c-5.964,0-10.8-4.834-10.8-10.799v-9.4
		c0-5.965,4.835-10.801,10.8-10.801h178.7c5.965,0,10.8,4.836,10.8,10.801V188.973z"/>
	<g>
		<g>
			<polygon fill="#E4A72B" points="238.227,201.17 238.227,168.742 249.618,168.742 234.136,150.594 218.652,168.742 
				230.045,168.742 230.045,201.17 			"/>
		</g>
	</g>
	<path fill="#E4A72B" d="M235.568,216.27v-4.662l-10.539,6.889l10.539,6.891v-4h9.701c-1.717,5.91-5.436,8.863-11.156,8.863
		c-3.647,0-6.578-1.201-8.796-3.602c-2.217-2.4-3.325-5.529-3.325-9.385c0-4.012,1.287-7.268,3.861-9.764
		c2.218-2.148,4.971-3.223,8.26-3.223c4.219,0,7.676,1.912,10.369,5.734l4.004-2.654c-3.646-5.529-8.318-8.293-14.016-8.293
		c-4.719,0-8.617,1.547-11.691,4.645c-3.505,3.539-5.256,8.057-5.256,13.555c0,5.594,1.729,10.127,5.184,13.604
		c3.051,3.064,6.854,4.596,11.406,4.596c4.981,0,8.98-1.717,11.996-5.152s4.523-7.943,4.523-13.523v-0.518H235.568z"/>
	<text transform="matrix(0.8 0 0 1 72.0801 146.3345)" font-family="'Candara-Bold'" font-size="28">EASY</text>
	<text transform="matrix(0.8 0 0 1 142.0801 146.3345)" font-family="'Candara-Bold'" font-size="28">MED</text>
	<text transform="matrix(0.8 0 0 1 205.0801 146.3345)" font-family="'Candara-Bold'" font-size="28">HARD</text>
</g>
</svg>
