<?xml version="1.0" encoding="utf-8"?>
<!-- Generator: Adobe Illustrator 16.0.0, SVG Export Plug-In . SVG Version: 6.00 Build 0)  -->
<!DOCTYPE svg PUBLIC "-//W3C//DTD SVG 1.1//EN" "http://www.w3.org/Graphics/SVG/1.1/DTD/svg11.dtd">
<svg version="1.1" id="Layer_5" xmlns="http://www.w3.org/2000/svg" xmlns:xlink="http://www.w3.org/1999/xlink" x="0px" y="0px"
	 width="216px" height="216px" viewBox="0 0 216 216" enable-background="new 0 0 216 216" xml:space="preserve">
<g>
	<g>
		<circle cx="120.149" cy="26.354" r="20.411"/>
	</g>
	<g>
		<g>
			<g>
				<path d="M171.178,114.123c13.269,0,24.493,11.227,24.493,24.494s-11.226,24.492-24.493,24.492
					c-13.269,0-24.494-11.225-24.494-24.492S157.909,114.123,171.178,114.123 M171.178,97.794
					c-22.453,0-40.822,18.372-40.822,40.823s18.369,40.822,40.822,40.822c22.452,0,40.822-18.371,40.822-40.822
					S193.63,97.794,171.178,97.794L171.178,97.794z"/>
			</g>
		</g>
	</g>
	<g>
		<g>
			<g>
				<path d="M48.709,144.74c13.268,0,24.493,11.227,24.493,24.494s-11.226,24.492-24.493,24.492S24.215,182.5,24.215,169.234
					C24.215,155.967,35.441,144.74,48.709,144.74 M48.709,128.412c-22.453,0-40.822,18.369-40.822,40.822
					s18.37,40.822,40.822,40.822s40.823-18.369,40.823-40.822S71.161,128.412,48.709,128.412L48.709,128.412z"/>
			</g>
		</g>
	</g>
	<g>
		<path d="M105.861,129.432l-1.021-18.369L74.223,97.794l27.555-33.68l30.616,3.062L95.654,39.623
			c-6.123-5.104-14.288-4.084-18.37,2.041C67.078,52.888,51.77,71.259,43.605,81.466c-9.186,11.226-5.104,28.575,9.185,32.657
			L105.861,129.432z"/>
	</g>
	<g>
		<polygon points="160.188,84.841 119.326,80.541 83.98,53.763 93.039,41.808 125.053,66.06 161.757,69.923 		"/>
	</g>
	<g>
		<polygon points="113.049,171.648 96.689,123.537 60.664,105.523 67.372,92.107 108.908,112.875 127.25,166.82 		"/>
	</g>
	<g>
		<path d="M16.051,75.341L16.051,75.341c-7.145-5.103-7.145-15.309-2.041-22.453L27.277,36.56
			c10.205-12.247,27.557-14.288,39.803-4.083l2.041,2.042L38.504,73.3C32.379,80.445,23.193,81.464,16.051,75.341z"/>
	</g>
</g>
</svg>
