<?xml version="1.0" encoding="utf-8"?>
<!-- Generator: Adobe Illustrator 16.0.0, SVG Export Plug-In . SVG Version: 6.00 Build 0)  -->
<!DOCTYPE svg PUBLIC "-//W3C//DTD SVG 1.1//EN" "http://www.w3.org/Graphics/SVG/1.1/DTD/svg11.dtd">
<svg version="1.1" id="Layer_2" xmlns="http://www.w3.org/2000/svg" xmlns:xlink="http://www.w3.org/1999/xlink" x="0px" y="0px"
	 width="216px" height="216px" viewBox="0 0 216 216" enable-background="new 0 0 216 216" xml:space="preserve">
<g>
	<path d="M163.183,202.653c-23.419,3.696-19.59-9.044-19.86-23.578l-1.381-28.491l-6.014,27.525
		c-1.098,5.224-2.478,10.011,4.925,13.846c5.214,4.525-0.669,10.969-6.285,10.141c-17.148,0.559-14.666-10.822-13.184-18.896
		l0.964-11.658c0.691-7.938,2.201-12.886,2.608-23.985l-2.315-6.017c-18.5-4.794-31.256-8.357-45.633-16.031l-10.298,1.368
		c-4.652,0.688-3.406,6.173-3.957,9.732l-1.504,9.719l-8.514,22.069l-0.666,1.918c-0.562,1.518-0.426,7.539,1.783,10.678
		l4.504,9.185c3.564,5.215,4.518,18.095-5.064,13.97l-7.129-3c-5.061-2.057-9.186-16.164-10.945-26.442l0.14-14.396
		c-4.396-1.36-6.182,24.544-4.396,29.871l4.396,13.438c1.351,4.365-3.704,5.883-7.269,5.883c-8.364,0-12.064-8.493-13.846-15.624
		l-1.358-5.328c-2.074-8.223-0.981-20.707,3.272-27.975l1.914-4.496c3.832-8.922-0.824-15.364-1.914-19.889
		c-3.564-14.528-6.443-28.641,3.565-42.618l0.696-0.956c-0.29-1.091-3.172-3.413-4.953-8.895
		c-3.84-12.349-7.264-32.611-2.456-32.611l3.146-0.155c8.096,0,5.746,33.437,15.355,31.252l69.611,0.69l12.194-3.303
		c4.53-1.22,8.359-4.097,12.325-6.572l7.934-4.926c9.185,9.186,17.144,14.803,30.292,19.595c3.572,27.256-0.399,33.302-3.828,49.587
		l-1.386,6.582c-2.448,11.649-3.274,23.716-2.719,35.638l0.271,5.615c-0.132,5.753,3.14,6.16,7.665,7.532
		C166.751,194.161,168.799,199.914,163.183,202.653L163.183,202.653L163.183,202.653z"/>
	<path d="M177.897,36.18c3.828,2.611,8.63,7.266,12.465,11.369l4.81,5.217c3.145,3.272,7.933,2.871,12.19,3.693l1.495,0.271
		c4.656,2.453,3.174,7.396,1.649,11.099l-0.96,2.321c-4.396,10.564-17.407,11.39-26.594,6.439l-4.097-2.18h-1.387l-2.862,1.917
		l-5.894,4.659c-11.92-5.217-21.646-11.506-29.471-19.864l17.964-22.483l6.021-8.763l1.229-2.88l1.38-3.165
		c1.096-3.542,5.614-6.974,8.921-5.616c3.139,1.383,5.194,7.398,4.366,10.569l-0.82,3.563L177.897,36.18L177.897,36.18
		L177.897,36.18z"/>
</g>
</svg>
