<?xml version="1.0" encoding="utf-8"?>
<!-- Generator: Adobe Illustrator 16.0.0, SVG Export Plug-In . SVG Version: 6.00 Build 0)  -->
<!DOCTYPE svg PUBLIC "-//W3C//DTD SVG 1.1//EN" "http://www.w3.org/Graphics/SVG/1.1/DTD/svg11.dtd">
<svg version="1.1" id="Layer_2_1_" xmlns="http://www.w3.org/2000/svg" xmlns:xlink="http://www.w3.org/1999/xlink" x="0px" y="0px"
	 width="216px" height="216px" viewBox="0 0 216 216" enable-background="new 0 0 216 216" xml:space="preserve">
<g>
	<path d="M156.323,182.652c-18.921,3.021-15.827-7.386-16.046-19.258l-1.116-23.271l-4.858,22.482
		c-0.888,4.267-2.002,8.177,3.98,11.31c4.211,3.696-0.542,8.96-5.078,8.283c-13.856,0.456-11.85-8.84-10.654-15.435l0.779-9.521
		c0.559-6.485,1.778-10.526,2.108-19.593l-1.871-4.914c-14.946-3.916-25.253-6.825-36.869-13.095l-8.32,1.117
		c-3.758,0.562-2.752,5.042-3.197,7.949l-1.215,7.94l-6.879,18.024l-0.538,1.567c-0.454,1.239-0.344,6.158,1.441,8.722l3.639,7.502
		c2.88,4.26,3.65,14.781-4.091,11.412l-5.76-2.45c-4.089-1.681-7.421-13.204-8.843-21.599l0.113-11.758
		c-3.552-1.112-4.995,20.046-3.552,24.397l3.552,10.977c1.092,3.565-2.993,4.805-5.873,4.805c-6.757,0-9.747-6.937-11.187-12.762
		l-1.097-4.352c-1.676-6.717-0.793-16.914,2.644-22.851l1.546-3.673c3.096-7.286-0.666-12.549-1.546-16.245
		c-2.879-11.866-5.206-23.395,2.88-34.811l0.562-0.78c-0.234-0.891-2.563-2.788-4.002-7.267C33.873,75.421,31.106,58.87,34.99,58.87
		l2.542-0.126c6.542,0,4.643,27.312,12.406,25.527l56.242,0.563l9.852-2.698c3.661-0.997,6.754-3.346,9.958-5.368l6.411-4.024
		c7.42,7.503,13.851,12.092,24.475,16.005c2.885,22.264-0.323,27.202-3.094,40.503l-1.119,5.377
		c-1.979,9.516-2.646,19.372-2.197,29.109l0.219,4.587c-0.106,4.699,2.537,5.032,6.193,6.151
		C159.206,175.717,160.861,180.417,156.323,182.652L156.323,182.652L156.323,182.652z"/>
	<path d="M168.211,46.676c3.093,2.132,6.974,5.935,10.071,9.286l3.887,4.262c2.54,2.672,6.409,2.345,9.848,3.016l1.209,0.221
		c3.762,2.004,2.563,6.042,1.333,9.066l-0.776,1.895c-3.552,8.629-14.064,9.304-21.486,5.26l-3.311-1.78h-1.121l-2.312,1.565
		l-4.761,3.806c-9.631-4.261-17.489-9.398-23.812-16.225l14.515-18.364l4.864-7.158l0.993-2.352l1.113-2.585
		c0.887-2.894,4.537-5.697,7.209-4.588c2.535,1.13,4.196,6.043,3.526,8.633l-0.661,2.91L168.211,46.676L168.211,46.676
		L168.211,46.676z"/>
</g>
<circle fill="none" stroke="#B20606" stroke-width="10" stroke-miterlimit="10" cx="108.244" cy="107.572" r="100.744"/>
<line fill="none" stroke="#B20606" stroke-width="10" stroke-miterlimit="10" x1="183.788" y1="176.305" x2="31.574" y2="42.151"/>
</svg>
