<?xml version="1.0" encoding="utf-8"?>
<!-- Generator: Adobe Illustrator 16.0.0, SVG Export Plug-In . SVG Version: 6.00 Build 0)  -->
<!DOCTYPE svg PUBLIC "-//W3C//DTD SVG 1.1//EN" "http://www.w3.org/Graphics/SVG/1.1/DTD/svg11.dtd">
<svg version="1.1" id="Layer_6" xmlns="http://www.w3.org/2000/svg" xmlns:xlink="http://www.w3.org/1999/xlink" x="0px" y="0px"
	 width="216px" height="216px" viewBox="0 0 216 216" enable-background="new 0 0 216 216" xml:space="preserve">
<g>
	<path fill="none" stroke="#000000" stroke-width="17" stroke-miterlimit="10" d="M106.725,177.932v-46.794
		c0-3.052-1.018-5.086-3.052-7.121c-5.086-5.085-17.293-17.293-17.293-17.293"/>
	<circle cx="137.242" cy="25.345" r="20.345"/>
	<g>
		<g>
			<path d="M167.759,143.346c13.226,0,24.413,11.188,24.413,24.413s-11.188,24.413-24.413,24.413
				c-13.224,0-24.413-11.188-24.413-24.413C143.346,154.535,154.535,143.346,167.759,143.346 M167.759,127.068
				c-22.379,0-40.689,18.312-40.689,40.69s18.312,40.688,40.689,40.688s40.689-18.311,40.689-40.688
				S190.138,127.068,167.759,127.068L167.759,127.068z"/>
		</g>
	</g>
	<g>
		<g>
			<path d="M45.689,143.346c13.225,0,24.414,11.188,24.414,24.413s-11.189,24.413-24.414,24.413s-24.414-11.188-24.414-24.413
				C21.277,154.535,32.466,143.346,45.689,143.346 M45.689,127.068C23.311,127.068,5,145.381,5,167.759s18.311,40.688,40.689,40.688
				s40.689-18.311,40.689-40.688S68.068,127.068,45.689,127.068L45.689,127.068z"/>
		</g>
	</g>
	<path d="M150.466,83.328c-25.431-31.535-29.501-37.638-37.638-37.638c-6.104,0-2.035,0-5.086,0C99.604,45.69,93.5,51.795,64,81.293
		c-11.189,11.19-10.172,25.431,1.018,32.552l34.586,20.345l14.24-10.173l-20.345-13.225l28.483-25.431l15.259,16.275
		c3.052,4.069,8.138,6.104,13.224,6.104h37.638V87.396h-31.534C156.568,87.397,151.482,85.361,150.466,83.328z"/>
</g>
</svg>
