<?xml version="1.0" encoding="utf-8"?>
<!-- Generator: Adobe Illustrator 16.0.0, SVG Export Plug-In . SVG Version: 6.00 Build 0)  -->
<!DOCTYPE svg PUBLIC "-//W3C//DTD SVG 1.1//EN" "http://www.w3.org/Graphics/SVG/1.1/DTD/svg11.dtd">
<svg version="1.1" id="Layer_7" xmlns="http://www.w3.org/2000/svg" xmlns:xlink="http://www.w3.org/1999/xlink" x="0px" y="0px"
	 width="216px" height="216px" viewBox="0 0 216 216" enable-background="new 0 0 216 216" xml:space="preserve">
<g>
	<g>
		<circle cx="153.946" cy="24.4" r="20.65"/>
	</g>
	<g>
		<path d="M66.184,157.3H19.722v-18h46.462c3.409,0,7.005-1.831,9.416-4.786l3.001-4.003l14.4,10.799l-3.271,4.354
			C83.901,152.949,75.098,157.3,66.184,157.3z"/>
	</g>
	<g>
		<path d="M196.279,106.208h-29.941c-11.82,0-21.867-6.224-26.29-16.259l-8.157-16.318c-1.236-2.47-2.957-4.205-5.411-5.449
			l-16.907-7.957l-13.503-4.186c-2.227-0.889-4.856-0.637-8.731,0.857c-11.529,6.252-32.103,16.058-32.985,16.478l-7.309-15.349
			c0.214-0.103,21.604-10.297,32.623-16.309l0.445-0.242l0.469-0.188c5.16-2.064,12.968-4.411,21.443-1.172l13.697,4.215L134,52.934
			c5.79,2.896,10.194,7.299,13.094,13.092l8.47,16.976c1.666,3.886,5.693,6.207,10.773,6.207h29.941L196.279,106.208
			L196.279,106.208z"/>
	</g>
	<g>
		<path d="M109.549,55.375L84.77,98.74c-5.163,9.293-3.098,20.649,5.162,27.877l40.268,28.91l-12.39-29.942
			c0,0-8.261,1.032-6.196-2.063l29.943-53.69L109.549,55.375z"/>
	</g>
	<g>
		<path d="M121.938,158.625l-19.617,51.625h21.684l17.552-44.397c4.13-11.356,2.065-24.779-7.227-33.04l-24.781-24.778
			l-14.455,14.454l24.78,24.778C122.972,150.365,124.005,154.495,121.938,158.625z"/>
	</g>
</g>
</svg>
